<svg width="51" height="32" viewBox="0 0 51 32" fill="none" xmlns="http://www.w3.org/2000/svg">
<g clip-path="url(#clip0_12_19254)">
<path d="M6.50006 9.00192H2.61098C2.34485 9.00192 2.11852 9.19527 2.077 9.45799L0.504083 19.4306C0.472806 19.6274 0.625207 19.8048 0.824808 19.8048H2.68149C2.94763 19.8048 3.17396 19.6115 3.21547 19.3482L3.63969 16.6584C3.68063 16.3951 3.90753 16.2018 4.17309 16.2018H5.40425C7.96607 16.2018 9.4446 14.9621 9.83072 12.5055C10.0047 11.4307 9.83811 10.5862 9.33485 9.99481C8.78211 9.34539 7.80173 9.00192 6.50006 9.00192ZM6.94874 12.6442C6.73606 14.0397 5.66981 14.0397 4.63883 14.0397H4.05197L4.46368 11.4335C4.48813 11.276 4.62461 11.16 4.78384 11.16H5.05282C5.75511 11.16 6.41761 11.16 6.75994 11.5603C6.96409 11.7992 7.02664 12.154 6.94874 12.6442Z" fill="#253B80"/>
<path d="M18.125 12.5979H16.2626C16.1039 12.5979 15.9669 12.7139 15.9424 12.8714L15.86 13.3923L15.7298 13.2035C15.3266 12.6184 14.4275 12.4228 13.5302 12.4228C11.4722 12.4228 9.71445 13.9815 9.37212 16.168C9.19413 17.2587 9.44718 18.3016 10.0659 19.0289C10.6334 19.6977 11.4455 19.9763 12.4116 19.9763C14.0698 19.9763 14.9894 18.9101 14.9894 18.9101L14.9063 19.4275C14.8751 19.6254 15.0275 19.8029 15.2259 19.8029H16.9035C17.1702 19.8029 17.3954 19.6095 17.4375 19.3462L18.444 12.9721C18.4758 12.7759 18.324 12.5979 18.125 12.5979ZM15.529 16.2226C15.3493 17.2865 14.5049 18.0008 13.4278 18.0008C12.887 18.0008 12.4548 17.8273 12.1773 17.4986C11.9021 17.1722 11.7975 16.7076 11.885 16.1902C12.0528 15.1353 12.9115 14.3977 13.972 14.3977C14.5009 14.3977 14.9308 14.5734 15.214 14.905C15.4978 15.2399 15.6103 15.7074 15.529 16.2226Z" fill="#253B80"/>
<path d="M28.0437 12.5979H26.1722C25.9937 12.5979 25.8259 12.6866 25.7247 12.835L23.1435 16.6371L22.0494 12.9835C21.9806 12.7549 21.7697 12.5979 21.5308 12.5979H19.6918C19.4683 12.5979 19.313 12.8163 19.3841 13.0267L21.4455 19.0761L19.5075 21.8119C19.3551 22.0275 19.5087 22.3237 19.7719 22.3237H21.6411C21.8186 22.3237 21.9846 22.2373 22.0853 22.0917L28.3098 13.1069C28.4588 12.8919 28.3059 12.5979 28.0437 12.5979Z" fill="#253B80"/>
<path d="M34.2403 9.00055H30.3506C30.0851 9.00055 29.8588 9.19389 29.8172 9.45662L28.2443 19.4293C28.213 19.626 28.3654 19.8034 28.5639 19.8034H30.5599C30.7453 19.8034 30.904 19.6681 30.933 19.4838L31.3794 16.657C31.4203 16.3937 31.6472 16.2004 31.9128 16.2004H33.1434C35.7057 16.2004 37.1837 14.9607 37.5704 12.5041C37.745 11.4293 37.5772 10.5848 37.0739 9.99343C36.5218 9.34402 35.542 9.00055 34.2403 9.00055ZM34.689 12.6428C34.4769 14.0383 33.4106 14.0383 32.3791 14.0383H31.7928L32.2051 11.4322C32.2295 11.2746 32.3648 11.1586 32.5246 11.1586H32.7936C33.4954 11.1586 34.1584 11.1586 34.5007 11.559C34.7049 11.7978 34.7669 12.1526 34.689 12.6428Z" fill="#179BD7"/>
<path d="M45.8642 12.5979H44.003C43.8432 12.5979 43.7073 12.7139 43.6834 12.8714L43.601 13.3923L43.4702 13.2035C43.067 12.6184 42.1685 12.4228 41.2712 12.4228C39.2132 12.4228 37.456 13.9815 37.1137 16.168C36.9362 17.2587 37.1882 18.3016 37.8069 19.0289C38.3755 19.6977 39.1864 19.9763 40.1526 19.9763C41.8108 19.9763 42.7303 18.9101 42.7303 18.9101L42.6473 19.4275C42.616 19.6254 42.7684 19.8029 42.968 19.8029H44.645C44.9106 19.8029 45.1369 19.6095 45.1784 19.3462L46.1855 12.9721C46.2162 12.7759 46.0638 12.5979 45.8642 12.5979ZM43.2683 16.2226C43.0897 17.2865 42.2441 18.0008 41.1671 18.0008C40.6274 18.0008 40.1941 17.8273 39.9166 17.4986C39.6414 17.1722 39.5379 16.7076 39.6243 16.1902C39.7932 15.1353 40.6507 14.3977 41.7113 14.3977C42.2402 14.3977 42.6701 14.5734 42.9533 14.905C43.2382 15.2399 43.3508 15.7074 43.2683 16.2226Z" fill="#179BD7"/>
<path d="M48.0598 9.2741L46.4636 19.4293C46.4323 19.626 46.5847 19.8035 46.7831 19.8035H48.3879C48.6546 19.8035 48.8809 19.6101 48.9219 19.3468L50.4959 9.37475C50.5272 9.17799 50.3748 9 50.1764 9H48.3794C48.2207 9.00057 48.0842 9.11658 48.0598 9.2741Z" fill="#179BD7"/>
</g>
<defs>
<clipPath id="clip0_12_19254">
<rect width="50" height="32" fill="white" transform="translate(0.5)"/>
</clipPath>
</defs>
</svg>
